<svg xmlns:xlink="http://www.w3.org/1999/xlink" xmlns="http://www.w3.org/2000/svg" viewBox="4.83 156.75 67.05 8.2">
  <defs>
    <linearGradient id="a">
      <stop offset="0" stop-color="#24c8db"/>
      <stop offset="1" stop-color="#ffc131"/>
    </linearGradient>
    <linearGradient xlink:href="#a" id="b" x1="54.67" y1="163.095" x2="71.866" y2="156.83" gradientUnits="userSpaceOnUse"/>
  </defs>
  <g aria-label="Google Chat Tauri" stroke-width=".833" stroke-linecap="round" stroke-linejoin="round">
    <path d="M8.018 159.632h2.972q.026.102.043.246.017.144.017.288 0 .584-.178 1.1-.178.517-.56.923-.405.432-.973.67-.567.236-1.295.236-.66 0-1.245-.237-.584-.237-1.016-.66-.432-.424-.686-1-.254-.584-.254-1.27 0-.685.254-1.261.254-.584.686-1.007.432-.424 1.016-.66.584-.238 1.245-.238.736 0 1.312.254.584.254 1 .703l-.788.77q-.296-.313-.66-.474-.365-.17-.873-.17-.414 0-.787.153-.373.144-.652.415-.28.271-.449.66-.16.381-.16.856 0 .474.16.863.17.381.45.652.287.271.66.423.372.144.795.144.483 0 .813-.135.339-.144.576-.364.17-.153.288-.381.127-.237.194-.525H8.018zm5.766-.956q.483 0 .88.169.407.16.695.457.296.288.457.694.17.407.17.89 0 .482-.17.888-.16.407-.457.703-.288.288-.694.457-.398.161-.88.161-.483 0-.89-.16-.398-.17-.694-.458-.288-.296-.457-.703-.161-.406-.161-.889 0-.482.16-.889.17-.406.458-.694.296-.296.694-.457.407-.17.89-.17zm0 3.395q.212 0 .407-.077.203-.084.355-.237.153-.152.237-.372.093-.22.093-.5t-.093-.5q-.084-.22-.237-.372-.152-.152-.355-.228-.195-.085-.407-.085-.22 0-.415.085-.194.076-.347.228-.152.153-.245.373-.085.22-.085.5 0 .279.085.499.093.22.245.372.153.153.347.237.195.077.415.077zm4.877-3.395q.483 0 .88.169.407.16.695.457.296.288.457.694.17.407.17.89 0 .482-.17.888-.16.407-.457.703-.288.288-.694.457-.398.161-.88.161-.484 0-.89-.16-.398-.17-.694-.458-.288-.296-.457-.703-.161-.406-.161-.889 0-.482.16-.889.17-.406.458-.694.296-.296.694-.457.406-.17.89-.17zm0 3.395q.212 0 .406-.077.204-.084.356-.237.152-.152.237-.372.093-.22.093-.5t-.093-.5q-.085-.22-.237-.372-.152-.152-.356-.228-.194-.085-.406-.085-.22 0-.415.085-.195.076-.347.228-.152.153-.245.373-.085.22-.085.5 0 .279.085.499.093.22.245.372.152.153.347.237.195.077.415.077zm4.826 2.853q-.44 0-.787-.119-.339-.11-.593-.296-.254-.178-.423-.398-.17-.22-.246-.44l1.058-.423q.119.33.39.508.27.186.601.186.525 0 .83-.33.305-.322.305-.906v-.288h-.068q-.195.27-.517.432-.313.152-.745.152-.372 0-.728-.152-.347-.153-.618-.432-.27-.288-.44-.686-.17-.398-.17-.889t.17-.889q.17-.406.44-.686.271-.288.618-.44.356-.152.728-.152.432 0 .745.16.322.153.517.424h.068v-.449h1.058v3.852q0 .525-.16.94-.162.423-.45.711-.288.297-.694.45-.398.16-.889.16zm.042-2.921q.204 0 .398-.076.204-.076.356-.22.152-.153.245-.364.094-.22.094-.5t-.094-.5q-.093-.22-.245-.364-.152-.152-.356-.228-.194-.076-.398-.076-.203 0-.398.076-.194.076-.347.228-.152.153-.245.373-.093.212-.093.491 0 .28.093.5.093.211.245.364.153.144.347.22.195.076.398.076zm3.1.957v-6.062h1.108v6.062zm5.943-1q-.288.509-.78.822-.482.313-1.184.313-.475 0-.881-.16-.398-.17-.694-.466-.297-.297-.466-.695-.16-.406-.16-.889 0-.448.16-.846.161-.407.449-.703.288-.305.677-.483.398-.177.872-.177.5 0 .89.169.389.16.651.457.263.288.398.686.136.398.136.863v.102q-.009.05-.009.093-.008.042-.008.093h-3.125q.034.254.136.44.11.178.262.305.161.119.348.178.186.05.38.05.382 0 .627-.168.254-.178.398-.44zm-1.008-1.608q-.008-.11-.076-.246-.06-.135-.186-.254-.119-.118-.305-.194-.178-.077-.432-.077-.355 0-.626.204-.271.203-.381.567zm1.313 2.608zM38.202 163.095q-1.346 0-2.252-.906-.897-.906-.897-2.26 0-1.355.897-2.253.898-.914 2.252-.914 1.372 0 2.227.99l-.559.543q-.652-.788-1.668-.788-1.007 0-1.685.677-.669.67-.669 1.745 0 1.075.67 1.744.677.677 1.684.677 1.059 0 1.837-.889l.568.55q-.432.517-1.059.805-.626.28-1.346.28zm3.099-6.197h.779v1.913l-.034.576h.034q.178-.305.542-.508.372-.203.77-.203.762 0 1.169.44.415.432.415 1.236v2.608h-.78v-2.456q0-1.117-.99-1.117-.474 0-.804.398-.322.39-.322.914v2.26h-.78zm5.114 4.792q0 .304.254.508.262.203.61.203.49 0 .872-.364.389-.364.389-.855-.364-.288-1.016-.288-.474 0-.796.228-.313.229-.313.568zm1.007-3.014q.864 0 1.364.465.499.457.499 1.262v2.557h-.745v-.576h-.034q-.482.711-1.287.711-.686 0-1.151-.406-.457-.407-.457-1.016 0-.644.482-1.025.491-.38 1.304-.38.694 0 1.143.253v-.178q0-.406-.322-.685-.321-.288-.753-.288-.652 0-1.033.55l-.686-.432q.567-.812 1.676-.812zm4.301 4.351q-.508 0-.846-.313-.33-.313-.339-.872v-2.32h-.728v-.711h.728v-1.27h.779v1.27h1.016v.711h-1.016v2.066q0 .415.16.567.162.144.365.144.093 0 .178-.017.093-.025.17-.059l.245.694q-.305.11-.712.11z" fill="#5f6368"/>
    <path d="M57.142 157.643v5.317h-.779v-5.317H54.67v-.745h4.165v.745zm2.303 4.047q0 .304.254.508.263.203.61.203.49 0 .872-.364.39-.364.39-.855-.365-.288-1.017-.288-.474 0-.796.228-.313.229-.313.568zm1.008-3.014q.863 0 1.363.465.5.457.5 1.262v2.557h-.746v-.576h-.034q-.482.711-1.287.711-.685 0-1.151-.406-.457-.407-.457-1.016 0-.644.482-1.025.491-.38 1.304-.38.694 0 1.143.253v-.178q0-.406-.322-.685-.321-.288-.753-.288-.652 0-1.033.55l-.686-.432q.567-.812 1.677-.812zm6.383 4.284h-.745v-.576h-.033q-.178.305-.55.508-.365.203-.763.203-.762 0-1.177-.432-.406-.44-.406-1.244v-2.608h.779v2.557q.025 1.016 1.024 1.016.466 0 .78-.373.313-.38.313-.906v-2.294h.778zm1.728 0h-.78v-4.149h.746v.677h.034q.118-.33.482-.558.373-.238.728-.238.34 0 .576.102l-.237.754q-.144-.06-.457-.06-.44 0-.77.356-.322.355-.322.83zm3.302-5.58q0 .229-.161.39-.161.16-.39.16-.228 0-.39-.16-.16-.161-.16-.39 0-.228.16-.39.162-.16.39-.16.229 0 .39.16.16.162.16.39zm-.161 1.431v4.149h-.78v-4.149z" fill="url(#b)"/>
  </g>
</svg>
